<svg version="1.1" xmlns="http://www.w3.org/2000/svg" xmlns:xlink="http://www.w3.org/1999/xlink" width="500" height="500"><defs><linearGradient x1="133.50054" y1="50" x2="133.50054" y2="450" gradientUnits="userSpaceOnUse" id="color-1"><stop offset="0" stop-color="#52d798"></stop><stop offset="1" stop-color="#5298d7"></stop></linearGradient><linearGradient x1="133.50054" y1="50" x2="133.50054" y2="450" gradientUnits="userSpaceOnUse" id="color-2"><stop offset="0" stop-color="#52d798"></stop><stop offset="1" stop-color="#5298d7"></stop></linearGradient><linearGradient x1="133.50054" y1="50" x2="133.50054" y2="450" gradientUnits="userSpaceOnUse" id="color-3"><stop offset="0" stop-color="#52d798"></stop><stop offset="1" stop-color="#5298d7"></stop></linearGradient><linearGradient x1="133.50054" y1="50" x2="133.50054" y2="450" gradientUnits="userSpaceOnUse" id="color-4"><stop offset="0" stop-color="#52d798"></stop><stop offset="1" stop-color="#5298d7"></stop></linearGradient><linearGradient x1="133.50054" y1="50" x2="133.50054" y2="450" gradientUnits="userSpaceOnUse" id="color-5"><stop offset="0" stop-color="#52d798"></stop><stop offset="1" stop-color="#5298d7"></stop></linearGradient><linearGradient x1="133.50054" y1="50" x2="133.50054" y2="450" gradientUnits="userSpaceOnUse" id="color-6"><stop offset="0" stop-color="#52d798"></stop><stop offset="1" stop-color="#5298d7"></stop></linearGradient><linearGradient x1="133.50054" y1="50" x2="133.50054" y2="450" gradientUnits="userSpaceOnUse" id="color-7"><stop offset="0" stop-color="#52d798"></stop><stop offset="1" stop-color="#5298d7"></stop></linearGradient><clipPath id="clip-1"><rect x="84.12079" y="26.82416" transform="scale(1.86399,1.86399)" width="100" height="100"></rect></clipPath><linearGradient x1="133.50054" y1="50" x2="133.50054" y2="450" gradientUnits="userSpaceOnUse" id="color-8"><stop offset="0" stop-color="#52d798"></stop><stop offset="1" stop-color="#5298d7"></stop></linearGradient></defs><g data-paper-data="{&quot;description&quot;:&quot;Logo for GCP Smarty Starty\n==========================\n\nThis logo was generated by MarkMaker at http://emblemmatic.org/markmaker/ and may be composed of elements designed by others.\n\nThe font is Work Sans ExtraBold designed by Wei Huang and released under the OFL license via Google Fonts: https://www.google.com/fonts/specimen/Work%20Sans. The font includes this copyright statement: Copyright (c) 2014-2015 Wei Huang (wweeiihhuuaanngg@gmail.com)\n\nThe symbol is 'migration' designed by Red Cross Red Crescent Climate Centre and released into the public domain at the Noun Project: https://thenounproject.com/term/migration/27831.\n\nMarkMaker uses semantic data from the Princeton University WordNet database http://wordnet.princeton.edu and font descriptions from Google Fonts https://www.google.com/fonts.&quot;}" fill="none" fill-rule="nonzero" stroke="none" stroke-width="1" stroke-linecap="butt" stroke-linejoin="miter" stroke-miterlimit="10" stroke-dasharray="" stroke-dashoffset="0" font-family="none" font-weight="none" font-size="none" text-anchor="none" style="mix-blend-mode: normal"><g data-paper-data="{&quot;elementType&quot;:&quot;logo&quot;}"><g data-paper-data="{&quot;elementType&quot;:&quot;text&quot;}"><g data-paper-data="{&quot;baseline&quot;:67,&quot;elementType&quot;:&quot;row&quot;}" fill="url(#color-1)"><g data-paper-data="{&quot;baselineProportion&quot;:0.9852941176470589,&quot;fontSize&quot;:100,&quot;baseline&quot;:67,&quot;elementType&quot;:&quot;word&quot;}"><path d="M157.7111,296.00007h22.80384v27.02403h-10.2173l-0.51827,-5.62692c-2.61602,4.24487 -7.13237,6.3673 -13.54903,6.3673c-4.34359,0 -8.23061,-0.9625 -11.66105,-2.8875c-3.43045,-1.925 -6.13285,-4.76314 -8.10721,-8.51442c-1.97436,-3.75128 -2.96154,-8.2923 -2.96154,-13.62307c0,-5.28141 0.99952,-9.82243 2.99856,-13.62307c1.99904,-3.80064 4.86186,-6.70048 8.58846,-8.69952c3.7266,-1.99904 8.15657,-2.99856 13.2899,-2.99856c5.82436,0 10.48878,1.01186 13.99326,3.03558c3.50449,2.02372 6.24391,5.33077 8.21827,9.92115l-14.0673,5.25673c-0.93782,-4.44231 -3.47981,-6.66346 -7.62596,-6.66346c-6.56474,0 -9.84711,4.54102 -9.84711,13.62307c0,4.83718 0.8391,8.36634 2.51731,10.58749c1.6782,2.22115 4.26955,3.33173 7.77403,3.33173c2.56667,0 4.61506,-0.54295 6.14519,-1.62885c1.53013,-1.0859 2.29519,-2.69006 2.29519,-4.8125v-0.37019h-10.06923z" data-paper-data="{&quot;elementType&quot;:&quot;letter&quot;,&quot;baseline&quot;:67,&quot;baselineProportion&quot;:0.9852941176470589,&quot;fontSize&quot;:100}"></path><path d="M226.64088,308.51257c-1.33269,5.23205 -3.9117,9.08205 -7.73702,11.54999c-3.82532,2.46795 -8.57612,3.70192 -14.2524,3.70192c-5.03461,0 -9.39054,-0.98718 -13.06778,-2.96154c-3.67724,-1.97436 -6.50304,-4.86186 -8.4774,-8.6625c-1.97436,-3.80064 -2.96154,-8.31698 -2.96154,-13.54903c0,-5.23205 0.98718,-9.73605 2.96154,-13.51201c1.97436,-3.77596 4.78782,-6.66346 8.44038,-8.6625c3.65256,-1.99904 7.99615,-2.99856 13.03076,-2.99856c5.5282,0 10.24198,1.17228 14.14134,3.51683c3.89936,2.34455 6.39198,5.88605 7.47788,10.62451l-13.1048,5.25673c-0.54295,-3.0109 -1.43141,-5.07163 -2.66538,-6.18221c-1.23397,-1.11058 -3.03558,-1.66586 -5.40481,-1.66586c-3.0109,0 -5.31843,1.13526 -6.92259,3.40577c-1.60417,2.27051 -2.40625,5.67628 -2.40625,10.2173c0,9.08205 3.06025,13.62307 9.18076,13.62307c2.46795,0 4.35593,-0.57997 5.66394,-1.7399c1.30801,-1.15994 2.18413,-3.02324 2.62836,-5.5899z" data-paper-data="{&quot;elementType&quot;:&quot;letter&quot;,&quot;baseline&quot;:67,&quot;baselineProportion&quot;:0.9852941176470589,&quot;fontSize&quot;:100}"></path><path d="M249.74087,274.15874c6.46602,0 11.37724,1.40673 14.73365,4.22019c3.35641,2.81346 5.03461,6.95961 5.03461,12.43846c0,5.18269 -1.69054,9.14375 -5.07163,11.88317c-3.38109,2.73942 -8.27996,4.10913 -14.69663,4.10913h-9.18076v16.21442h-15.10384v-48.86536h24.2846M247.2976,296.14815c2.41859,0 4.19551,-0.44423 5.33077,-1.33269c1.13526,-0.88846 1.70288,-2.27051 1.70288,-4.14615c0,-1.87564 -0.56763,-3.25769 -1.70288,-4.14615c-1.13526,-0.88846 -2.91218,-1.33269 -5.33077,-1.33269h-6.7375v10.95769z" data-paper-data="{&quot;elementType&quot;:&quot;letter&quot;,&quot;baseline&quot;:66,&quot;baselineProportion&quot;:1,&quot;fontSize&quot;:100}"></path></g></g><g data-paper-data="{&quot;baseline&quot;:67,&quot;elementType&quot;:&quot;row&quot;}"><g data-paper-data="{&quot;baselineProportion&quot;:0.7570621468926554,&quot;fontSize&quot;:100,&quot;baseline&quot;:67,&quot;elementType&quot;:&quot;word&quot;}"><path d="M156.89668,328.94717c4.6891,0 8.72419,0.62933 12.10528,1.88798c3.38109,1.25865 6.62644,3.39343 9.73605,6.40432l-7.40384,9.55096c-1.97436,-2.27051 -4.08445,-3.9117 -6.33029,-4.92356c-2.24583,-1.01186 -4.82484,-1.51779 -7.73702,-1.51779c-2.12243,0 -3.77596,0.34551 -4.96057,1.03654c-1.18461,0.69103 -1.77692,1.60417 -1.77692,2.73942c0,0.88846 0.61699,1.57949 1.85096,2.07308c1.23397,0.49359 3.28237,1.01186 6.14519,1.55481c4.73846,0.8391 8.52676,1.93734 11.3649,3.29471c2.83814,1.35737 4.91122,3.07259 6.21923,5.14567c1.30801,2.07308 1.96202,4.63974 1.96202,7.7c0,3.25769 -0.93782,6.04647 -2.81346,8.36634c-1.87564,2.31987 -4.41763,4.07211 -7.62596,5.25673c-3.20833,1.18461 -6.83621,1.77692 -10.88365,1.77692c-5.62692,0 -10.16794,-0.60465 -13.62307,-1.81394c-3.45513,-1.20929 -6.66346,-3.12195 -9.625,-5.73798l7.03365,-10.36538c1.97436,2.31987 4.18317,3.98574 6.62644,4.99759c2.44327,1.01186 5.31843,1.51779 8.62548,1.51779c4.49166,0 6.7375,-1.0859 6.7375,-3.25769c0,-0.93782 -0.65401,-1.6782 -1.96202,-2.22115c-1.30801,-0.54295 -3.41811,-1.0859 -6.33029,-1.62885c-3.94872,-0.74038 -7.26811,-1.62885 -9.95817,-2.66538c-2.69006,-1.03654 -4.92356,-2.57901 -6.70048,-4.6274c-1.77692,-2.0484 -2.66538,-4.77548 -2.66538,-8.18125c0,-3.20833 0.86378,-6.04647 2.59134,-8.51442c1.72756,-2.46795 4.24487,-4.39295 7.55192,-5.775c3.30705,-1.38205 7.25577,-2.07308 11.84615,-2.07308z" data-paper-data="{&quot;elementType&quot;:&quot;letter&quot;,&quot;baseline&quot;:67,&quot;baselineProportion&quot;:0.9852941176470589,&quot;fontSize&quot;:100}" fill="url(#color-2)"></path><path d="M226.78895,340.79332c3.70192,0 6.63878,1.11058 8.81057,3.33173c2.17179,2.22115 3.25769,5.35545 3.25769,9.40288v25.02499h-14.95576v-21.32307c0,-1.87564 -0.30849,-3.22067 -0.92548,-4.03509c-0.61699,-0.81442 -1.54247,-1.22163 -2.77644,-1.22163c-1.57949,0 -2.80112,0.59231 -3.6649,1.77692c-0.86378,1.18461 -1.29567,2.93686 -1.29567,5.25673v19.54614h-14.95576v-21.32307c0,-1.87564 -0.30849,-3.22067 -0.92548,-4.03509c-0.61699,-0.81442 -1.54247,-1.22163 -2.77644,-1.22163c-1.53013,0 -2.73942,0.59231 -3.62788,1.77692c-0.88846,1.18461 -1.33269,2.96154 -1.33269,5.33077v19.47211h-14.95576v-37.01921h13.47499l0.37019,7.62596c1.13526,-2.71474 2.77644,-4.78782 4.92356,-6.21923c2.14711,-1.43141 4.72612,-2.14711 7.73702,-2.14711c2.81346,0 5.19503,0.64167 7.14471,1.925c1.94968,1.28333 3.34407,3.13429 4.18317,5.55288c1.13526,-2.41859 2.7641,-4.26955 4.88654,-5.55288c2.12243,-1.28333 4.59038,-1.925 7.40384,-1.925z" data-paper-data="{&quot;elementType&quot;:&quot;letter&quot;,&quot;baseline&quot;:51,&quot;baselineProportion&quot;:1,&quot;fontSize&quot;:100}" fill="url(#color-3)"></path><path d="M276.98701,370.33465c0.8391,0 1.53013,-0.09872 2.07308,-0.29615l-1.18461,7.92211c-1.62885,0.88846 -3.38109,1.33269 -5.25673,1.33269c-2.81346,0 -5.14567,-0.50593 -6.99663,-1.51779c-1.85096,-1.01186 -3.07259,-2.50497 -3.6649,-4.47932c-1.0859,1.87564 -2.72708,3.34407 -4.92356,4.40529c-2.19647,1.06122 -4.94823,1.59183 -8.25528,1.59183c-3.75128,0 -6.60176,-0.7774 -8.55144,-2.33221c-1.94968,-1.55481 -2.92452,-3.7883 -2.92452,-6.70048c0,-3.10961 1.11058,-5.62692 3.33173,-7.55192c2.22115,-1.925 5.92307,-3.40577 11.10576,-4.44231l7.84807,-1.62885v-1.40673c0,-1.43141 -0.37019,-2.54199 -1.11058,-3.33173c-0.74038,-0.78974 -1.77692,-1.18461 -3.10961,-1.18461c-1.48077,0 -2.69006,0.38253 -3.62788,1.1476c-0.93782,0.76506 -1.50545,2.08542 -1.70288,3.96106l-12.29038,-2.59134c0.54295,-3.94872 2.33221,-7.00897 5.36779,-9.18076c3.03558,-2.17179 7.29278,-3.25769 12.77163,-3.25769c12.33974,0 18.50961,4.91122 18.50961,14.73365v11.84615c0,1.97436 0.86378,2.96154 2.59134,2.96154M254.77548,370.55677c1.28333,0 2.40625,-0.38253 3.36875,-1.1476c0.9625,-0.76506 1.44375,-1.83862 1.44375,-3.22067v-3.40577l-4.07211,1.03654c-2.56667,0.64167 -3.85,1.925 -3.85,3.85c0,0.93782 0.28381,1.65352 0.85144,2.14711c0.56763,0.49359 1.32035,0.74038 2.25817,0.74038z" data-paper-data="{&quot;elementType&quot;:&quot;letter&quot;,&quot;baseline&quot;:51,&quot;baselineProportion&quot;:0.9807692307692307,&quot;fontSize&quot;:100}" fill="url(#color-4)"></path><path d="M300.60526,340.79332c1.72756,0 3.03558,0.29615 3.92404,0.88846l-1.40673,12.36442c-0.44423,-0.34551 -1.0859,-0.61699 -1.925,-0.81442c-0.8391,-0.19744 -1.75224,-0.29615 -2.73942,-0.29615c-2.31987,0 -4.19551,0.62933 -5.62692,1.88798c-1.43141,1.25865 -2.14711,3.09727 -2.14711,5.51586v18.21345h-14.95576v-37.01921h13.40096l0.44423,8.6625c0.88846,-3.0109 2.24583,-5.33077 4.07211,-6.95961c1.82628,-1.62885 4.14615,-2.44327 6.95961,-2.44327z" data-paper-data="{&quot;elementType&quot;:&quot;letter&quot;,&quot;baseline&quot;:51,&quot;baselineProportion&quot;:1,&quot;fontSize&quot;:100}" fill="url(#color-5)"></path><path d="M329.25813,376.62792c-1.18461,0.78974 -2.78878,1.43141 -4.8125,1.925c-2.02372,0.49359 -3.99808,0.74038 -5.92307,0.74038c-4.9359,0 -8.63782,-0.98718 -11.10576,-2.96154c-2.46795,-1.97436 -3.70192,-5.18269 -3.70192,-9.625v-14.88172h-5.99711v-10.29134h5.99711v-8.07019l14.95576,-4.14615v12.21634h10.14326v10.29134h-10.14326v12.51249c0,1.72756 0.38253,2.96154 1.1476,3.70192c0.76506,0.74038 1.93734,1.11058 3.51683,1.11058c1.87564,0 3.52916,-0.41955 4.96057,-1.25865z" data-paper-data="{&quot;elementType&quot;:&quot;letter&quot;,&quot;baseline&quot;:66.5,&quot;baselineProportion&quot;:0.9851851851851852,&quot;fontSize&quot;:100}" fill="url(#color-6)"></path><path d="M354.4312,376.33177c-1.53013,4.49166 -3.20833,8.04551 -5.03461,10.66153c-1.82628,2.61602 -3.99808,4.51634 -6.51538,5.70096c-2.51731,1.18461 -5.57756,1.77692 -9.18076,1.77692c-4.44231,0 -8.04551,-0.86378 -10.80961,-2.59134l2.8875,-9.625c0.78974,0.54295 1.66586,0.93782 2.62836,1.18461c0.9625,0.24679 2.25817,0.37019 3.88702,0.37019c1.53013,0 2.71474,-0.19744 3.55384,-0.59231c0.8391,-0.39487 1.45609,-1.11058 1.85096,-2.14711l0.51827,-1.40673l-4.51634,-10.51346l-10.80961,-27.61633h16.43653l4.44231,20.06441l1.55481,8.21827l1.77692,-8.44038l4.66442,-19.8423h14.73365z" data-paper-data="{&quot;elementType&quot;:&quot;letter&quot;,&quot;baseline&quot;:50,&quot;baselineProportion&quot;:0.6993006993006993,&quot;fontSize&quot;:100}" fill="#05c0c0"></path></g></g><g data-paper-data="{&quot;baseline&quot;:67,&quot;elementType&quot;:&quot;row&quot;}" fill="url(#color-7)"><g data-paper-data="{&quot;baselineProportion&quot;:0.7570621468926554,&quot;fontSize&quot;:100,&quot;baseline&quot;:67,&quot;elementType&quot;:&quot;word&quot;}"><path d="M156.89668,384.47599c4.6891,0 8.72419,0.62933 12.10528,1.88798c3.38109,1.25865 6.62644,3.39343 9.73605,6.40432l-7.40384,9.55096c-1.97436,-2.27051 -4.08445,-3.9117 -6.33029,-4.92356c-2.24583,-1.01186 -4.82484,-1.51779 -7.73702,-1.51779c-2.12243,0 -3.77596,0.34551 -4.96057,1.03654c-1.18461,0.69103 -1.77692,1.60417 -1.77692,2.73942c0,0.88846 0.61699,1.57949 1.85096,2.07308c1.23397,0.49359 3.28237,1.01186 6.14519,1.55481c4.73846,0.8391 8.52676,1.93734 11.3649,3.29471c2.83814,1.35737 4.91122,3.07259 6.21923,5.14567c1.30801,2.07308 1.96202,4.63974 1.96202,7.7c0,3.25769 -0.93782,6.04647 -2.81346,8.36634c-1.87564,2.31987 -4.41763,4.07211 -7.62596,5.25673c-3.20833,1.18461 -6.83621,1.77692 -10.88365,1.77692c-5.62692,0 -10.16794,-0.60465 -13.62307,-1.81394c-3.45513,-1.20929 -6.66346,-3.12195 -9.625,-5.73798l7.03365,-10.36538c1.97436,2.31987 4.18317,3.98574 6.62644,4.99759c2.44327,1.01186 5.31843,1.51779 8.62548,1.51779c4.49166,0 6.7375,-1.0859 6.7375,-3.25769c0,-0.93782 -0.65401,-1.6782 -1.96202,-2.22115c-1.30801,-0.54295 -3.41811,-1.0859 -6.33029,-1.62885c-3.94872,-0.74038 -7.26811,-1.62885 -9.95817,-2.66538c-2.69006,-1.03654 -4.92356,-2.57901 -6.70048,-4.6274c-1.77692,-2.0484 -2.66538,-4.77548 -2.66538,-8.18125c0,-3.20833 0.86378,-6.04647 2.59134,-8.51442c1.72756,-2.46795 4.24487,-4.39295 7.55192,-5.775c3.30705,-1.38205 7.25577,-2.07308 11.84615,-2.07308z" data-paper-data="{&quot;elementType&quot;:&quot;letter&quot;,&quot;baseline&quot;:67,&quot;baselineProportion&quot;:0.9852941176470589,&quot;fontSize&quot;:100}"></path><path d="M205.16973,432.15674c-1.18461,0.78974 -2.78878,1.43141 -4.8125,1.925c-2.02372,0.49359 -3.99808,0.74038 -5.92307,0.74038c-4.9359,0 -8.63782,-0.98718 -11.10576,-2.96154c-2.46795,-1.97436 -3.70192,-5.18269 -3.70192,-9.625v-14.88172h-5.99711v-10.29134h5.99711v-8.07019l14.95576,-4.14615v12.21634h10.14326v10.29134h-10.14326v12.51249c0,1.72756 0.38253,2.96154 1.1476,3.70192c0.76506,0.74038 1.93734,1.11058 3.51683,1.11058c1.87564,0 3.52916,-0.41955 4.96057,-1.25865z" data-paper-data="{&quot;elementType&quot;:&quot;letter&quot;,&quot;baseline&quot;:66.5,&quot;baselineProportion&quot;:0.9851851851851852,&quot;fontSize&quot;:100}"></path><path d="M241.07837,425.86347c0.8391,0 1.53013,-0.09872 2.07308,-0.29615l-1.18461,7.92211c-1.62885,0.88846 -3.38109,1.33269 -5.25673,1.33269c-2.81346,0 -5.14567,-0.50593 -6.99663,-1.51779c-1.85096,-1.01186 -3.07259,-2.50497 -3.6649,-4.47932c-1.0859,1.87564 -2.72708,3.34407 -4.92356,4.40529c-2.19647,1.06122 -4.94823,1.59183 -8.25528,1.59183c-3.75128,0 -6.60176,-0.7774 -8.55144,-2.33221c-1.94968,-1.55481 -2.92452,-3.7883 -2.92452,-6.70048c0,-3.10961 1.11058,-5.62692 3.33173,-7.55192c2.22115,-1.925 5.92307,-3.40577 11.10576,-4.44231l7.84807,-1.62885v-1.40673c0,-1.43141 -0.37019,-2.54199 -1.11058,-3.33173c-0.74038,-0.78974 -1.77692,-1.18461 -3.10961,-1.18461c-1.48077,0 -2.69006,0.38253 -3.62788,1.1476c-0.93782,0.76506 -1.50545,2.08542 -1.70288,3.96106l-12.29038,-2.59134c0.54295,-3.94872 2.33221,-7.00897 5.36779,-9.18076c3.03558,-2.17179 7.29278,-3.25769 12.77163,-3.25769c12.33974,0 18.50961,4.91122 18.50961,14.73365v11.84615c0,1.97436 0.86378,2.96154 2.59134,2.96154M218.86684,426.08559c1.28333,0 2.40625,-0.38253 3.36875,-1.1476c0.9625,-0.76506 1.44375,-1.83862 1.44375,-3.22067v-3.40577l-4.07211,1.03654c-2.56667,0.64167 -3.85,1.925 -3.85,3.85c0,0.93782 0.28381,1.65352 0.85144,2.14711c0.56763,0.49359 1.32035,0.74038 2.25817,0.74038z" data-paper-data="{&quot;elementType&quot;:&quot;letter&quot;,&quot;baseline&quot;:51,&quot;baselineProportion&quot;:0.9807692307692307,&quot;fontSize&quot;:100}"></path><path d="M264.69663,396.32214c1.72756,0 3.03558,0.29615 3.92404,0.88846l-1.40673,12.36442c-0.44423,-0.34551 -1.0859,-0.61699 -1.925,-0.81442c-0.8391,-0.19744 -1.75224,-0.29615 -2.73942,-0.29615c-2.31987,0 -4.19551,0.62933 -5.62692,1.88798c-1.43141,1.25865 -2.14711,3.09727 -2.14711,5.51586v18.21345h-14.95576v-37.01921h13.40096l0.44423,8.6625c0.88846,-3.0109 2.24583,-5.33077 4.07211,-6.95961c1.82628,-1.62885 4.14615,-2.44327 6.95961,-2.44327z" data-paper-data="{&quot;elementType&quot;:&quot;letter&quot;,&quot;baseline&quot;:51,&quot;baselineProportion&quot;:1,&quot;fontSize&quot;:100}"></path><path d="M293.3495,432.15674c-1.18461,0.78974 -2.78878,1.43141 -4.8125,1.925c-2.02372,0.49359 -3.99808,0.74038 -5.92307,0.74038c-4.9359,0 -8.63782,-0.98718 -11.10576,-2.96154c-2.46795,-1.97436 -3.70192,-5.18269 -3.70192,-9.625v-14.88172h-5.99711v-10.29134h5.99711v-8.07019l14.95576,-4.14615v12.21634h10.14326v10.29134h-10.14326v12.51249c0,1.72756 0.38253,2.96154 1.1476,3.70192c0.76506,0.74038 1.93734,1.11058 3.51683,1.11058c1.87564,0 3.52916,-0.41955 4.96057,-1.25865z" data-paper-data="{&quot;elementType&quot;:&quot;letter&quot;,&quot;baseline&quot;:66.5,&quot;baselineProportion&quot;:0.9851851851851852,&quot;fontSize&quot;:100}"></path><path d="M318.52256,431.86059c-1.53013,4.49166 -3.20833,8.04551 -5.03461,10.66153c-1.82628,2.61602 -3.99808,4.51634 -6.51538,5.70096c-2.51731,1.18461 -5.57756,1.77692 -9.18076,1.77692c-4.44231,0 -8.04551,-0.86378 -10.80961,-2.59134l2.8875,-9.625c0.78974,0.54295 1.66586,0.93782 2.62836,1.18461c0.9625,0.24679 2.25817,0.37019 3.88702,0.37019c1.53013,0 2.71474,-0.19744 3.55384,-0.59231c0.8391,-0.39487 1.45609,-1.11058 1.85096,-2.14711l0.51827,-1.40673l-4.51634,-10.51346l-10.80961,-27.61633h16.43653l4.44231,20.06441l1.55481,8.21827l1.77692,-8.44038l4.66442,-19.8423h14.73365z" data-paper-data="{&quot;elementType&quot;:&quot;letter&quot;,&quot;baseline&quot;:50,&quot;baselineProportion&quot;:0.6993006993006993,&quot;fontSize&quot;:100}"></path></g></g></g></g><g clip-path="url(#clip-1)" data-paper-data="{&quot;elementType&quot;:&quot;emblem&quot;}" fill="url(#color-8)"><g><path d="M237.7629,71.14139c-0.94691,0 -1.89009,-0.39703 -2.55553,-1.17431l-4.36733,-5.10361c-1.206,-1.40918 -1.04197,-3.5304 0.36721,-4.7364c1.40918,-1.20787 3.5304,-1.04197 4.7364,0.36721l4.3692,5.10361c1.20414,1.40918 1.04011,3.5304 -0.36907,4.73827c-0.63003,0.54242 -1.40731,0.80524 -2.18087,0.80524z"></path><path d="M313.91813,160.12088c-0.94691,0 -1.89009,-0.39889 -2.55367,-1.17431l-9.5194,-11.1243c-1.20414,-1.41104 -1.04197,-3.53226 0.36721,-4.7364c1.41104,-1.20787 3.53226,-1.04384 4.7364,0.36721l9.5194,11.1243c1.20414,1.41104 1.04197,3.5304 -0.36721,4.73454c-0.63376,0.54429 -1.41104,0.80897 -2.18273,0.80897zM294.88119,137.87601c-0.94877,0 -1.89009,-0.39889 -2.55553,-1.17618l-9.5194,-11.1243c-1.20414,-1.40918 -1.04197,-3.5304 0.36721,-4.7364c1.41104,-1.20787 3.5304,-1.04384 4.7364,0.36721l9.5194,11.12244c1.20414,1.40918 1.04197,3.5304 -0.36721,4.7364c-0.63376,0.54429 -1.41104,0.81084 -2.18087,0.81084zM275.84238,115.63114c-0.94877,0 -1.89009,-0.39703 -2.55553,-1.17618l-9.5194,-11.12057c-1.206,-1.40918 -1.04197,-3.5304 0.36721,-4.7364c1.41104,-1.206 3.5304,-1.04197 4.7364,0.36721l9.5194,11.12244c1.20414,1.40918 1.04197,3.5304 -0.36721,4.7364c-0.63376,0.54056 -1.41104,0.80711 -2.18087,0.80711zM256.79984,93.38626c-0.94691,0 -1.89009,-0.39703 -2.55367,-1.17431l-9.5194,-11.12244c-1.206,-1.40918 -1.04197,-3.5304 0.36721,-4.7364c1.40918,-1.206 3.5304,-1.04197 4.7364,0.36721l9.5194,11.12244c1.20414,1.40918 1.04197,3.5304 -0.36907,4.7364c-0.63189,0.54429 -1.40731,0.80711 -2.18087,0.80711z"></path><path d="M327.80487,176.34507c-0.94691,0 -1.89009,-0.39889 -2.55367,-1.17431l-4.3692,-5.10361c-1.20414,-1.41104 -1.04197,-3.5304 0.36721,-4.7364c1.41104,-1.20414 3.53226,-1.04011 4.7364,0.36721l4.3692,5.10361c1.20414,1.41104 1.04197,3.53226 -0.36721,4.7364c-0.63376,0.54242 -1.40918,0.80711 -2.18273,0.80711z"></path></g><path d="M330.31753,97.13848l-14.25208,-9.59583c-1.53779,-1.03452 -3.6236,-0.62817 -4.66184,0.90963c-1.03638,1.53966 -0.63003,3.62733 0.90776,4.66371l2.52571,1.6981c-51.36974,-2.01684 -74.692,36.87348 -74.92873,37.28169c-0.93386,1.5993 -0.3933,3.65156 1.20414,4.58728c0.5331,0.31315 1.11839,0.46041 1.69437,0.46041c1.15381,0 2.27593,-0.59461 2.90223,-1.65895c0.05592,-0.09693 5.82497,-9.78036 17.82162,-18.70888c14.52422,-10.81115 31.48095,-15.92035 50.45079,-15.26609l-2.35795,0.84066c-1.74842,0.62257 -2.65992,2.54435 -2.03734,4.29277c0.49209,1.37376 1.78384,2.2312 3.16506,2.2312c0.3728,0 0.75492,-0.06338 1.12771,-0.19572l15.68549,-5.59197c1.19482,-0.42685 2.04666,-1.48747 2.2051,-2.74566c0.16217,-1.25633 -0.40262,-2.49588 -1.45205,-3.20234z"></path><path d="M230.43555,135.68023c-2.08953,-0.466 -5.50064,-1.42782 -7.10367,-2.22001c-0.32993,-0.77728 -0.69154,-2.66924 -0.93572,-3.96285c-0.74373,-3.91997 -1.58812,-8.36373 -4.73267,-10.3377c-2.96747,-1.86958 -6.55939,-1.86958 -9.18016,-1.86958c-4.28532,0 -11.72078,1.55457 -14.63979,5.83989c-2.31694,3.39806 -6.97319,10.69372 -7.17077,11.00128c-0.99724,1.56389 -0.53869,3.64224 1.0252,4.63947c1.56389,1.00096 3.63851,0.53869 4.63761,-1.0252c0.0466,-0.07456 4.79791,-7.51934 7.05707,-10.83352c0.66731,-0.98046 2.91342,-1.94042 5.39626,-2.47352l-5.97409,21.34084c-0.07642,0.27214 -0.11184,0.54615 -0.11743,0.82388c-1.17059,2.55926 -5.73364,12.48874 -10.53155,22.31757c-0.8127,1.66641 -0.12116,3.67766 1.54525,4.49036c0.47532,0.233 0.97673,0.34111 1.47069,0.34111c1.24328,0 2.43996,-0.68968 3.02153,-1.88636c4.49222,-9.20253 8.77567,-18.4852 10.30601,-21.82175h1.65336c2.12681,3.51549 4.66184,7.7598 5.51928,9.39452c0.29265,1.42595 -1.13144,6.69919 -3.02712,11.18208c-0.72323,1.70742 0.07642,3.67952 1.78384,4.40088c0.42685,0.17894 0.87235,0.26469 1.30852,0.26469c1.30852,0 2.5518,-0.7661 3.09236,-2.04853c1.94042,-4.57983 4.89111,-12.84849 2.86682,-16.77406c-0.95809,-1.86213 -3.89761,-6.76629 -6.02628,-10.28364l4.18652,-15.06478c0.66917,3.50617 1.31039,6.51465 3.66834,7.92196c2.79599,1.66268 8.35068,2.95815 9.43552,3.19861c0.24418,0.05592 0.49209,0.08202 0.73628,0.08202c1.53779,0 2.92647,-1.06434 3.27503,-2.62636c0.40449,-1.8118 -0.73628,-3.60496 -2.54621,-4.01131z"></path><path d="M190.70271,142.26198l0.15471,-0.36721c1.10162,-3.28622 -0.66917,-6.85949 -3.95166,-7.96856c-1.59185,-0.53497 -3.29554,-0.4194 -4.80164,0.3262c-1.39799,0.69527 -2.45488,1.86772 -3.02899,3.30858l-5.70009,-2.30389l-5.42422,13.40023l23.38564,9.45044l5.42049,-13.4021zM183.59717,137.26089c0.70272,-0.34857 1.49679,-0.40262 2.23493,-0.15098c1.53034,0.51633 2.35609,2.18273 1.88636,3.59937l-0.12302,0.29637l-5.41117,-2.18646c0.26282,-0.68036 0.75492,-1.2321 1.41291,-1.5583z"></path><path d="M221.97303,109.1314c0,3.92557 -2.96561,7.1074 -6.62463,7.1074c-3.65902,0 -6.62276,-3.1837 -6.62276,-7.1074c0,-3.91997 2.96561,-7.10181 6.62276,-7.10181c3.66274,0.00186 6.62463,3.18183 6.62463,7.10181z"></path><ellipse cx="124.47679" cy="90.59816" transform="scale(1.86399,1.86399)" rx="3.21" ry="3.444"></ellipse><path d="M199.648,187.9074c0,3.28808 -2.67669,5.95359 -5.98155,5.95359c-3.30299,0 -5.98155,-2.66737 -5.98155,-5.95359c0,-3.29367 2.68042,-5.95545 5.98155,-5.95545c3.30672,0 5.98155,2.66364 5.98155,5.95545z"></path><path d="M208.61193,192.10139c-1.42782,-1.18736 -3.54345,-0.99164 -4.72895,0.43617c-3.577,4.30582 -4.05232,4.18839 -8.58927,3.07559c-0.84252,-0.20504 -1.7652,-0.43245 -2.79599,-0.65426c-6.86135,-1.46696 -12.43469,2.08953 -17.0257,10.86893c-0.8593,1.64404 -0.22554,3.67206 1.42036,4.53323c0.49769,0.25909 1.02892,0.38212 1.55457,0.38212c1.20973,0 2.38032,-0.65612 2.97866,-1.80062c1.93855,-3.70375 3.69629,-5.65535 5.20613,-6.64886c-1.16313,4.49968 -3.54904,12.46637 -7.1745,18.61195c-0.94132,1.59558 -0.41194,3.65902 1.18736,4.59847c0.53497,0.31501 1.12212,0.466 1.70369,0.466c1.15195,0 2.27034,-0.58902 2.89851,-1.65336c1.93482,-3.28062 3.52854,-6.94523 4.8091,-10.41226c1.29734,0.80711 2.71584,1.91432 3.3235,2.56858c-0.33925,1.0923 -1.73538,3.38501 -3.14828,5.11666c-1.17059,1.43714 -0.95809,3.55277 0.47718,4.72522c0.62444,0.50887 1.37563,0.75864 2.12495,0.75864c0.973,0 1.93482,-0.4194 2.60027,-1.23023c2.12868,-2.60027 5.5491,-7.50443 4.55,-11.1448c-0.52192,-1.91059 -2.44742,-3.74849 -4.45494,-5.21172l1.12771,-5.69822c0.06897,-0.34484 0.06524,-0.68036 0.02982,-1.01028c4.20516,0.69154 7.48765,-0.08015 12.36758,-5.94986c1.18177,-1.42409 0.98419,-3.54158 -0.44177,-4.72708z"></path><path d="M250.75678,185.51031c-0.71204,-1.71114 -2.67856,-2.52384 -4.39156,-1.80994c-1.71487,0.71391 -3.40365,1.24142 -4.4568,1.49679c-0.61512,-0.83507 -1.44832,-2.07835 -2.0187,-2.92274c-0.99537,-1.4856 -1.85654,-2.7643 -2.50707,-3.52108c-2.55926,-2.96188 -12.47942,-1.56575 -14.44221,-0.75864c-3.56954,1.45391 -10.1513,5.79142 -13.62019,9.42061c-1.28243,1.34207 -1.23396,3.46516 0.10811,4.75131c0.6524,0.62071 1.4856,0.92827 2.31881,0.92827c0.8854,0 1.77079,-0.34857 2.42878,-1.03824c2.09885,-2.19765 5.67213,-4.71963 8.46625,-6.36367l-3.71121,15.15425c-0.40449,1.17059 -4.04859,11.51387 -8.8726,18.5318c-1.05129,1.52847 -0.66544,3.61801 0.86303,4.67116c0.58157,0.39703 1.24328,0.58902 1.90127,0.58902c1.06993,0 2.11936,-0.50701 2.76989,-1.45578c4.11197,-5.97968 7.31617,-13.77117 8.81668,-17.74706l0.26655,0.03355c1.66268,2.2517 3.34773,4.6227 3.95353,5.70941c0.19945,1.36631 -0.76983,6.09525 -2.12681,10.30787c-0.56665,1.7652 0.40262,3.65902 2.16969,4.22753c0.34297,0.10811 0.68781,0.16403 1.02892,0.16403c1.42036,0 2.7382,-0.9059 3.19675,-2.33185c1.69623,-5.26391 3.38128,-12.18864 1.78943,-15.27914c-0.79033,-1.53779 -2.98239,-4.60033 -4.75877,-6.99742l4.27786,-15.40403c0.03355,0.04846 0.07083,0.10438 0.10438,0.15285c2.16969,3.23216 3.15947,4.6227 4.23499,5.36084c0.8388,0.5797 2.59095,1.77452 10.39548,-1.47255c1.71674,-0.71391 2.52757,-2.68042 1.81553,-4.39716z"></path></g></g></svg>